<svg width="200" height="200" viewBox="0 0 200 200" xmlns="http://www.w3.org/2000/svg">
  <!-- Background -->
  <rect width="200" height="200" fill="#0f172a"/>
  
  <!-- Government building -->
  <g fill="#64748b">
    <rect x="40" y="80" width="120" height="80" rx="5"/>
    <rect x="50" y="70" width="100" height="15" rx="3"/>
    <rect x="60" y="60" width="80" height="15" rx="3"/>
    <rect x="70" y="50" width="60" height="15" rx="3"/>
  </g>
  
  <!-- Columns -->
  <g fill="#94a3b8">
    <rect x="50" y="80" width="8" height="80"/>
    <rect x="70" y="80" width="8" height="80"/>
    <rect x="90" y="80" width="8" height="80"/>
    <rect x="110" y="80" width="8" height="80"/>
    <rect x="130" y="80" width="8" height="80"/>
    <rect x="150" y="80" width="8" height="80"/>
  </g>
  
  <!-- Scales of justice -->
  <g fill="#f3f4f6">
    <rect x="95" y="40" width="10" height="40"/>
    <path d="M70 40 Q100 20 130 40" stroke="#f3f4f6" stroke-width="3" fill="none"/>
    <circle cx="70" cy="40" r="3"/>
    <circle cx="130" cy="40" r="3"/>
  </g>
  
  <!-- Policy documents -->
  <g fill="#ffffff">
    <rect x="20" y="100" width="15" height="20" rx="2"/>
    <rect x="22" y="102" width="11" height="2"/>
    <rect x="22" y="106" width="11" height="2"/>
    <rect x="22" y="110" width="8" height="2"/>
    
    <rect x="165" y="100" width="15" height="20" rx="2"/>
    <rect x="167" y="102" width="11" height="2"/>
    <rect x="167" y="106" width="11" height="2"/>
    <rect x="167" y="110" width="8" height="2"/>
  </g>
  
  <!-- Climate symbols -->
  <g fill="#0ea5e9">
    <!-- Water drop -->
    <path d="M30 50 Q30 40 40 40 Q50 40 50 50 Q50 60 40 60 Q30 60 30 50"/>
    
    <!-- Wind -->
    <path d="M170 50 Q175 45 180 50 Q185 55 180 60" stroke="#0ea5e9" stroke-width="2" fill="none"/>
    <path d="M170 55 Q175 50 180 55 Q185 60 180 65" stroke="#0ea5e9" stroke-width="2" fill="none"/>
  </g>
  
  <!-- Green energy symbols -->
  <g fill="#22c55e">
    <!-- Solar panel -->
    <rect x="20" y="30" width="20" height="12" rx="1"/>
    <rect x="22" y="32" width="4" height="2"/>
    <rect x="28" y="32" width="4" height="2"/>
    <rect x="34" y="32" width="4" height="2"/>
    <rect x="22" y="36" width="4" height="2"/>
    <rect x="28" y="36" width="4" height="2"/>
    <rect x="34" y="36" width="4" height="2"/>
    
    <!-- Wind turbine -->
    <rect x="160" y="30" width="2" height="15"/>
    <circle cx="161" cy="30" r="4" fill="none" stroke="#22c55e" stroke-width="1"/>
  </g>
  
  <!-- Global warming thermometer -->
  <g fill="#ef4444">
    <rect x="100" y="20" width="4" height="30"/>
    <circle cx="102" cy="55" r="6"/>
    <rect x="98" y="25" width="8" height="2" fill="#fbbf24"/>
    <rect x="98" y="30" width="8" height="2" fill="#f59e0b"/>
    <rect x="98" y="35" width="8" height="2" fill="#ef4444"/>
  </g>
  
  <!-- Policy makers -->
  <g fill="#f3f4f6">
    <circle cx="80" cy="120" r="6"/>
    <rect x="77" y="126" width="6" height="8"/>
    
    <circle cx="100" cy="120" r="6"/>
    <rect x="97" y="126" width="6" height="8"/>
    
    <circle cx="120" cy="120" r="6"/>
    <rect x="117" y="126" width="6" height="8"/>
  </g>
  
  <!-- Decision arrows -->
  <g fill="#fbbf24">
    <path d="M60 140 L80 140" stroke="#fbbf24" stroke-width="2" marker-end="url(#arrowhead)"/>
    <path d="M120 140 L140 140" stroke="#fbbf24" stroke-width="2" marker-end="url(#arrowhead)"/>
  </g>
  
  <!-- Arrow marker definition -->
  <defs>
    <marker id="arrowhead" markerWidth="10" markerHeight="7" refX="9" refY="3.5" orient="auto">
      <polygon points="0 0, 10 3.5, 0 7" fill="#fbbf24"/>
    </marker>
  </defs>
  
  <!-- Success/failure indicators -->
  <g fill="#10b981">
    <circle cx="50" cy="170" r="8"/>
    <path d="M45 170 L48 173 L55 166" stroke="#ffffff" stroke-width="2" fill="none"/>
  </g>
  
  <g fill="#ef4444">
    <circle cx="150" cy="170" r="8"/>
    <path d="M145 165 L155 175 M155 165 L145 175" stroke="#ffffff" stroke-width="2"/>
  </g>
  
  <!-- Global impact visualization -->
  <g fill="#0ea5e9" opacity="0.3">
    <circle cx="100" cy="100" r="30"/>
    <circle cx="100" cy="100" r="20" fill="none" stroke="#0ea5e9" stroke-width="1"/>
    <circle cx="100" cy="100" r="10" fill="none" stroke="#0ea5e9" stroke-width="1"/>
  </g>
</svg>
