<svg width="200" height="200" viewBox="0 0 200 200" xmlns="http://www.w3.org/2000/svg">
  <!-- Background -->
  <rect width="200" height="200" fill="#0f172a"/>
  
  <!-- Ground -->
  <rect x="0" y="180" width="200" height="20" fill="#374151"/>
  
  <!-- Sustainable shelters -->
  <g>
    <!-- Bamboo shelter -->
    <g fill="#10b981">
      <rect x="20" y="140" width="30" height="40" rx="2"/>
      <rect x="25" y="135" width="20" height="10" rx="1"/>
      <circle cx="30" cy="140" r="2" fill="#22c55e"/>
      <circle cx="40" cy="140" r="2" fill="#22c55e"/>
    </g>
    
    <!-- Solar panel shelter -->
    <g fill="#64748b">
      <rect x="70" y="150" width="35" height="30" rx="2"/>
      <rect x="75" y="145" width="25" height="8" fill="#fbbf24"/>
      <rect x="80" y="142" width="15" height="3" fill="#f59e0b"/>
    </g>
    
    <!-- Recycled materials shelter -->
    <g fill="#8b5cf6">
      <rect x="120" y="145" width="30" height="35" rx="2"/>
      <rect x="125" y="140" width="20" height="8" rx="1"/>
      <rect x="130" y="135" width="10" height="5" fill="#a78bfa"/>
    </g>
  </g>
  
  <!-- Climate refugees -->
  <g fill="#f3f4f6">
    <circle cx="40" cy="170" r="4"/>
    <rect x="38" y="174" width="4" height="6"/>
    
    <circle cx="90" cy="175" r="4"/>
    <rect x="88" y="179" width="4" height="6"/>
    
    <circle cx="140" cy="172" r="4"/>
    <rect x="138" y="176" width="4" height="6"/>
  </g>
  
  <!-- Environmental elements -->
  <g fill="#22c55e">
    <!-- Trees -->
    <circle cx="60" cy="120" r="8"/>
    <rect x="58" y="128" width="4" height="12" fill="#8b4513"/>
    
    <circle cx="160" cy="110" r="6"/>
    <rect x="159" y="116" width="2" height="8" fill="#8b4513"/>
  </g>
  
  <!-- Flood water -->
  <g fill="#0ea5e9" opacity="0.3">
    <rect x="0" y="175" width="200" height="5"/>
  </g>
  
  <!-- Construction materials -->
  <g fill="#f59e0b">
    <rect x="10" y="160" width="6" height="4"/>
    <rect x="18" y="160" width="6" height="4"/>
    <rect x="26" y="160" width="6" height="4"/>
  </g>
  
  <!-- Solar panels on ground -->
  <g fill="#fbbf24">
    <rect x="50" y="185" width="15" height="8"/>
    <rect x="70" y="185" width="15" height="8"/>
    <rect x="90" y="185" width="15" height="8"/>
  </g>
  
  <!-- Wind turbine -->
  <g fill="#64748b">
    <rect x="170" y="100" width="3" height="40"/>
    <circle cx="171.5" cy="100" r="8" fill="none" stroke="#64748b" stroke-width="2"/>
    <path d="M171.5 92 L171.5 100" stroke="#64748b" stroke-width="2"/>
    <path d="M171.5 100 L171.5 108" stroke="#64748b" stroke-width="2"/>
  </g>
  
  <!-- Eco-friendly indicators -->
  <g fill="#10b981">
    <circle cx="25" cy="30" r="3"/>
    <circle cx="35" cy="30" r="3"/>
    <circle cx="45" cy="30" r="3"/>
  </g>
  
  <!-- Sustainability badge -->
  <g fill="#22c55e">
    <circle cx="180" cy="30" r="12"/>
    <path d="M175 30 L180 35 L185 25" stroke="#ffffff" stroke-width="2" fill="none"/>
  </g>
</svg>
