<svg width="200" height="200" viewBox="0 0 200 200" xmlns="http://www.w3.org/2000/svg">
  <!-- Background -->
  <rect width="200" height="200" fill="#0f172a"/>
  
  <!-- Water droplets -->
  <g fill="#0ea5e9">
    <circle cx="50" cy="60" r="8" opacity="0.8"/>
    <circle cx="80" cy="45" r="6" opacity="0.6"/>
    <circle cx="120" cy="55" r="7" opacity="0.7"/>
    <circle cx="150" cy="40" r="5" opacity="0.5"/>
  </g>
  
  <!-- Water pipe system -->
  <g stroke="#64748b" stroke-width="3" fill="none">
    <path d="M20 100 Q50 80 80 100 Q110 120 140 100 Q170 80 200 100"/>
    <path d="M20 120 Q50 100 80 120 Q110 140 140 120 Q170 100 200 120"/>
  </g>
  
  <!-- Water flow -->
  <g fill="#0ea5e9" opacity="0.6">
    <rect x="25" y="95" width="4" height="10" rx="2"/>
    <rect x="45" y="90" width="4" height="15" rx="2"/>
    <rect x="65" y="95" width="4" height="10" rx="2"/>
    <rect x="85" y="88" width="4" height="18" rx="2"/>
    <rect x="105" y="92" width="4" height="12" rx="2"/>
    <rect x="125" y="89" width="4" height="16" rx="2"/>
    <rect x="145" y="93" width="4" height="11" rx="2"/>
    <rect x="165" y="90" width="4" height="14" rx="2"/>
    <rect x="185" y="94" width="4" height="9" rx="2"/>
  </g>
  
  <!-- Contamination warning -->
  <g fill="#ef4444">
    <circle cx="160" cy="160" r="15"/>
    <path d="M160 150 L160 170 M150 160 L170 160" stroke="#ffffff" stroke-width="2"/>
  </g>
  
  <!-- Water treatment plant -->
  <g fill="#64748b">
    <rect x="30" y="140" width="40" height="30" rx="3"/>
    <rect x="35" y="135" width="30" height="10" rx="2"/>
    <circle cx="50" cy="140" r="3" fill="#0ea5e9"/>
  </g>
  
  <!-- Filtration system -->
  <g fill="#94a3b8">
    <rect x="100" y="145" width="8" height="20"/>
    <rect x="115" y="145" width="8" height="20"/>
    <rect x="130" y="145" width="8" height="20"/>
  </g>
  
  <!-- Clean water output -->
  <g fill="#10b981">
    <circle cx="180" cy="155" r="12"/>
    <path d="M175 155 L180 160 L185 150" stroke="#ffffff" stroke-width="2" fill="none"/>
  </g>
</svg>
